# xmcd
#
# Track frame offsets: 
#        150
#        22882
#        39377
#        62512
#        76437
#        98405
#        123622
#        147155
#        165515
#        189555
#        209980
#        225600
#        245040
#        273362
#
# Disc length: 3952 seconds
#
# Revision: 0
# Processed by: cddbd v1.5.1PL0 Copyright (c) Steve Scherf et al.
# Submitted via: ExactAudioCopy v0.95a3
#
DISCID=be0f6e0e
DTITLE=Игорь Саруханов - Лучшие Песни
DYEAR=1993
DGENRE=Pop
TTITLE0=Маскарад
TTITLE1=Ящики Почтовые
TTITLE2=Крутой Поворот
TTITLE3=Barber
TTITLE4=Вчерашний День
TTITLE5=Слово В Слово
TTITLE6=Мотылёк
TTITLE7=Любовь Не Любит Слов
TTITLE8=Зелёные Глаза
TTITLE9=Парень С Гитарой
TTITLE10=Дорогие Мои Старики
TTITLE11=Сухуми
TTITLE12=Возвращайся
TTITLE13=Я Хочу Побыть Один
EXTD=
EXTT0=
EXTT1=
EXTT2=
EXTT3=
EXTT4=
EXTT5=
EXTT6=
EXTT7=
EXTT8=
EXTT9=
EXTT10=
EXTT11=
EXTT12=
EXTT13=
PLAYORDER=
